<?xml version="1.0" encoding="us-ascii" standalone="no"?><svg xmlns="http://www.w3.org/2000/svg" xmlns:xlink="http://www.w3.org/1999/xlink" contentStyleType="text/css" height="601px" preserveAspectRatio="none" style="width:809px;height:601px;background:#FFFFFF;" version="1.1" viewBox="0 0 809 601" width="809px" zoomAndPan="magnify"><defs/><g><ellipse cx="35" cy="16" fill="#222222" rx="10" ry="10" style="stroke:#222222;stroke-width:1.0;"/><rect fill="#F1F1F1" height="40" rx="12.5" ry="12.5" style="stroke:#181818;stroke-width:0.5;" width="56" x="7" y="87"/><text fill="#000000" font-family="sans-serif" font-size="14" lengthAdjust="spacing" textLength="46" x="12" y="111.8467">START</text><rect fill="#F1F1F1" height="40" rx="12.5" ry="12.5" style="stroke:#181818;stroke-width:0.5;" width="50" x="243" y="555"/><text fill="#000000" font-family="sans-serif" font-size="14" lengthAdjust="spacing" textLength="30" x="253" y="579.8467">END</text><rect fill="#F1F1F1" height="40" rx="12.5" ry="12.5" style="stroke:#181818;stroke-width:0.5;" width="99" x="200.5" y="204"/><text fill="#000000" font-family="sans-serif" font-size="14" lengthAdjust="spacing" textLength="89" x="205.5" y="228.8467">TURN_RIGHT</text><rect fill="#F1F1F1" height="40" rx="12.5" ry="12.5" style="stroke:#181818;stroke-width:0.5;" width="89" x="350.5" y="438"/><text fill="#000000" font-family="sans-serif" font-size="14" lengthAdjust="spacing" textLength="79" x="355.5" y="462.8467">TURN_LEFT</text><rect fill="#F1F1F1" height="40" rx="12.5" ry="12.5" style="stroke:#181818;stroke-width:0.5;" width="130" x="330" y="321"/><text fill="#000000" font-family="sans-serif" font-size="14" lengthAdjust="spacing" textLength="120" x="335" y="345.8467">MOVE_FORWARD</text><!--link *start* to START--><g id="link_*start*_START"><path d="M35,26.19 C35,40.4 35,62.02 35,80.74 " fill="none" id="*start*-to-START" style="stroke:#181818;stroke-width:1.0;"/><polygon fill="#181818" points="35,86.74,39,77.74,35,81.74,31,77.74,35,86.74" style="stroke:#181818;stroke-width:1.0;"/></g><!--link START to END--><g id="link_START_END"><path d="M27.08,127.16 C18.49,149.69 6,188.41 6,223 C6,223 6,223 6,459 C6,561.83 171.3004,573.4841 236.8804,574.2041 " fill="none" id="START-to-END" style="stroke:#FF0000;stroke-width:1.0;"/><polygon fill="#FF0000" points="242.88,574.27,233.9245,570.1714,237.8803,574.2151,233.8366,578.171,242.88,574.27" style="stroke:#FF0000;stroke-width:1.0;"/><text fill="#FF0000" font-family="sans-serif" font-size="13" lengthAdjust="spacing" textLength="146" x="7" y="345.5669">y &gt;= END_POSITION_Y</text></g><!--link TURN_RIGHT to END--><g id="link_TURN_RIGHT_END"><path d="M245.3,244.24 C237.76,277.6 224.43,348.31 231,408 C236.95,462 251.8022,518.3636 260.6222,549.0436 " fill="none" id="TURN_RIGHT-to-END" style="stroke:#FF0000;stroke-width:1.0;"/><polygon fill="#FF0000" points="262.28,554.81,263.6377,545.0552,260.8985,550.0046,255.9491,547.2655,262.28,554.81" style="stroke:#FF0000;stroke-width:1.0;"/><text fill="#FF0000" font-family="sans-serif" font-size="13" lengthAdjust="spacing" textLength="146" x="232" y="404.0669">y &gt;= END_POSITION_Y</text></g><!--link TURN_LEFT to END--><g id="link_TURN_LEFT_END"><path d="M373.74,478.25 C350.3,499.48 317.2478,529.4129 293.7778,550.6629 " fill="none" id="TURN_LEFT-to-END" style="stroke:#FF0000;stroke-width:1.0;"/><polygon fill="#FF0000" points="289.33,554.69,298.6864,551.6146,293.0365,551.3341,293.317,545.6842,289.33,554.69" style="stroke:#FF0000;stroke-width:1.0;"/><text fill="#FF0000" font-family="sans-serif" font-size="13" lengthAdjust="spacing" textLength="146" x="340" y="521.0669">y &gt;= END_POSITION_Y</text></g><!--link MOVE_FORWARD to END--><g id="link_MOVE_FORWARD_END"><path d="M460.31,344 C534.56,347.81 648.99,358.88 676,391 C680.86,396.78 679.61,401.36 676,408 C598.49,550.39 375.546,570.5703 299.146,573.3703 " fill="none" id="MOVE_FORWARD-to-END" style="stroke:#FF0000;stroke-width:1.0;"/><polygon fill="#FF0000" points="293.15,573.59,302.2905,577.2577,298.1466,573.4069,301.9975,569.2631,293.15,573.59" style="stroke:#FF0000;stroke-width:1.0;"/><text fill="#FF0000" font-family="sans-serif" font-size="13" lengthAdjust="spacing" textLength="146" x="655" y="462.5669">y &gt;= END_POSITION_Y</text></g><!--link START to START--><g id="link_START_START"><path d="M63.18,98.33 C80.97,96.15 98,99.04 98,107 C98,114.96 86.9255,118.5798 69.1355,116.3998 " fill="none" id="START-to-START" style="stroke:#181818;stroke-width:1.0;"/><polygon fill="#181818" points="63.18,115.67,71.6267,120.735,68.1429,116.2782,72.5997,112.7944,63.18,115.67" style="stroke:#181818;stroke-width:1.0;"/><text fill="#000000" font-family="sans-serif" font-size="13" lengthAdjust="spacing" textLength="261" x="104" y="111.5669">front_distance &gt; DISTANCE_THRESHOLD</text></g><!--link START to TURN_RIGHT--><g id="link_START_TURN_RIGHT"><path d="M63.11,123.03 C101.92,143.8 166.6495,178.4096 209.0795,201.1096 " fill="none" id="START-to-TURN_RIGHT" style="stroke:#181818;stroke-width:1.0;"/><polygon fill="#181818" points="214.37,203.94,208.3212,196.1674,209.9613,201.5813,204.5474,203.2214,214.37,203.94" style="stroke:#181818;stroke-width:1.0;"/><text fill="#000000" font-family="sans-serif" font-size="13" lengthAdjust="spacing" textLength="272" x="157" y="170.0669">front_distance &lt;= DISTANCE_THRESHOLD</text></g><!--link TURN_RIGHT to MOVE_FORWARD--><g id="link_TURN_RIGHT_MOVE_FORWARD"><path d="M272.19,244.12 C287.87,257.49 309.49,275.63 329,291 C341.78,301.07 351.4211,308.3425 363.5611,317.2425 " fill="none" id="TURN_RIGHT-to-MOVE_FORWARD" style="stroke:#0000FF;stroke-width:1.0;"/><polygon fill="#0000FF" points="368.4,320.79,363.5066,312.2428,364.3676,317.8338,358.7766,318.6947,368.4,320.79" style="stroke:#0000FF;stroke-width:1.0;"/></g><!--link MOVE_FORWARD to TURN_RIGHT--><g id="link_MOVE_FORWARD_TURN_RIGHT"><path d="M379.68,320.99 C367.84,307 350.55,288.05 333,274 C319.02,262.81 307.4619,255.3572 292.6419,247.0372 " fill="none" id="MOVE_FORWARD-to-TURN_RIGHT" style="stroke:#181818;stroke-width:1.0;"/><polygon fill="#181818" points="287.41,244.1,293.2997,251.9937,291.7699,246.5477,297.216,245.0179,287.41,244.1" style="stroke:#181818;stroke-width:1.0;"/><text fill="#000000" font-family="sans-serif" font-size="13" lengthAdjust="spacing" textLength="272" x="352" y="287.0669">front_distance &lt;= DISTANCE_THRESHOLD</text></g><!--link TURN_LEFT to MOVE_FORWARD--><g id="link_TURN_LEFT_MOVE_FORWARD"><path d="M439.61,455 C505.26,451.02 622.95,439.56 649,408 C653.81,402.17 653.81,396.83 649,391 C625.48,362.51 533.2934,350.8463 466.1234,345.8363 " fill="none" id="TURN_LEFT-to-MOVE_FORWARD" style="stroke:#0000FF;stroke-width:1.0;"/><polygon fill="#0000FF" points="460.14,345.39,468.8175,350.0483,465.1261,345.7619,469.4126,342.0705,460.14,345.39" style="stroke:#0000FF;stroke-width:1.0;"/></g><!--link MOVE_FORWARD to TURN_LEFT--><g id="link_MOVE_FORWARD_TURN_LEFT"><path d="M391.64,361.01 C390.21,370.06 388.71,381.06 388,391 C386.87,406.86 388.0014,418.882 390.2014,432.052 " fill="none" id="MOVE_FORWARD-to-TURN_LEFT" style="stroke:#181818;stroke-width:1.0;"/><polygon fill="#181818" points="391.19,437.97,393.6525,428.4339,390.3662,433.0383,385.7618,429.7521,391.19,437.97" style="stroke:#181818;stroke-width:1.0;"/><text fill="#000000" font-family="sans-serif" font-size="13" lengthAdjust="spacing" textLength="251" x="389" y="404.0669">left_distance &gt; DISTANCE_THRESHOLD</text></g><!--link MOVE_FORWARD to MOVE_FORWARD--><g id="link_MOVE_FORWARD_MOVE_FORWARD"><path d="M460.4,330.15 C479.86,330.47 495,334.09 495,341 C495,347.91 485.8592,351.4313 466.3992,351.7513 " fill="none" id="MOVE_FORWARD-to-MOVE_FORWARD" style="stroke:#181818;stroke-width:1.0;"/><polygon fill="#181818" points="460.4,351.85,469.4646,355.7015,465.3993,351.7678,469.333,347.7026,460.4,351.85" style="stroke:#181818;stroke-width:1.0;"/><text fill="#000000" font-family="sans-serif" font-size="13" lengthAdjust="spacing" textLength="26" x="501" y="345.5669">else</text></g><!--link END to END--><g id="link_END_END"><path d="M293.28,565.19 C310.77,562.21 328,565.48 328,575 C328,584.52 316.6848,588.7978 299.1948,585.8178 " fill="none" id="END-to-END" style="stroke:#181818;stroke-width:1.0;"/><polygon fill="#181818" points="293.28,584.81,301.4803,590.2648,298.209,585.6498,302.824,582.3785,293.28,584.81" style="stroke:#181818;stroke-width:1.0;"/><text fill="#000000" font-family="sans-serif" font-size="13" lengthAdjust="spacing" textLength="95" x="334" y="579.5669">Remain in END</text></g><!--SRC=[fPFHQeCm58RlVOe3knWCPFTYXJ9j5JeTqMsCKeBL8mje8YQzwDiliLYqjOnru4KyETzFpaVopKe4R5frX19bqR5MCS4jwn4YpXJBQsWb7afXIvKhjBPFEx1j3z9iIJBJjQx5NZUfBkUI6HIKW23sWLLm16zXrlGjIQCiIcBwPVKWsDk73ikT3ZAj3hY5g4Ndw9et0xdF_RPdPUyafYHQX_zBs0IhkmDUau-0hXBokIJ-lHbQsqb3xtJaJWvw1iCwi-e4LxHakfSN21xuaTwANmAQXIH8msJZZwYHeIlKNSon-Z0ZwF945yhtzG7Dk6CBvuHUwtp0OFmMFx5wRMKgVHYp3tMWnketF_FydpHTHKmA3c0jqKpINtq9EIZi6iRrqpWz75EtpnU5O9Cp3lhJ_zOF]--></g></svg>